<svg id="Capa_1" enable-background="new 0 0 512 512" height="512" viewBox="0 0 512 512" width="512" xmlns="http://www.w3.org/2000/svg"><path d="m482.001 256c0-60.367-23.508-117.12-66.194-159.806s-99.44-66.194-159.806-66.194l-20.016 225.951 20.016 226.049c60.367 0 117.12-23.508 159.806-66.194s66.194-99.439 66.194-159.806z" fill="#b4d2d7"/><path d="m256 30c-60.367 0-117.12 23.508-159.806 66.194-42.685 42.686-66.194 99.439-66.194 159.806s23.508 117.12 66.194 159.806 99.44 66.194 159.806 66.194v-452c.001 0 .001 0 0 0z" fill="#e1ebf0"/><path d="m262.271 183.896c15.743 0 28.552 12.809 28.552 28.552h30c0-29.319-21.663-53.671-49.823-57.898v-33.492h-14.999l-10.008 41.942 10.008 20.896z" fill="#07485e"/><path d="m262.271 241h-6.271l-10.008 15 10.008 15h6.271c15.743 0 28.552 12.809 28.552 28.552s-12.809 28.552-28.552 28.552h-6.271l-10.007 14.896 10.008 47.942h14.999v-33.492c28.16-4.228 49.823-28.579 49.823-57.898 0-32.285-26.266-58.552-58.552-58.552z" fill="#07485e"/><path d="m249.729 328.104c-15.744 0-28.552-12.809-28.552-28.552h-30c0 29.319 21.663 53.671 49.823 57.898v33.492h15.001v-62.839h-6.272z" fill="#09607d"/><path d="m249.729 241c-15.744 0-28.552-12.809-28.552-28.552s12.808-28.552 28.552-28.552h6.272v-62.839h-15.001v33.492c-28.16 4.227-49.823 28.579-49.823 57.898 0 32.285 26.266 58.552 58.552 58.552h6.272v-30h-6.272z" fill="#09607d"/><path d="m352.09 89.519 31.907-13.519v-41.746c-37.655-21.781-81.368-34.254-127.997-34.254l-26 34.254 26 29.48c34.979 0 67.802 9.394 96.09 25.785z" fill="#ff9f22"/><path d="m256 63.734v-63.734c-46.629 0-90.342 12.473-127.997 34.254l-8.503 60.746 40.41-5.481c28.288-16.391 61.111-25.785 96.09-25.785z" fill="#ffd422"/><path d="m159.91 89.519-31.907-55.264c-38.845 22.471-71.234 54.853-93.715 93.691l15.212 43.054 40.053-11.147c16.895-29.135 41.216-53.449 70.357-70.334z" fill="#fff79f"/><path d="m89.553 159.853-55.264-31.907c-21.796 37.654-34.28 81.37-34.288 128.005l34.244 18.049 29.49-18.049c.009-34.984 9.414-67.811 25.818-96.098z" fill="#ffd422"/><path d="m63.734 256c0-.016.001-.033.001-.049h-63.734c0 .016-.001.033-.001.049 0 46.623 12.469 90.33 34.245 127.981h37.755l17.51-31.907c-16.385-28.283-25.776-61.102-25.776-96.074z" fill="#fff79f"/><path d="m89.51 352.074-55.264 31.907c22.474 38.857 54.865 71.256 93.716 93.74l34.038-20.221-2.132-35.044c-29.147-16.898-53.47-41.228-70.358-70.382z" fill="#ffd422"/><path d="m159.868 422.456-31.907 55.264c37.664 21.798 81.393 34.28 128.039 34.28l31.5-36.5-31.5-27.234c-34.996 0-67.835-9.404-96.132-25.81z" fill="#fff79f"/><path d="m256 448.266v63.734c46.646 0 90.375-12.482 128.039-34.279l4.961-42.721-36.868-12.544c-28.297 16.406-61.136 25.81-96.132 25.81z" fill="#ffd422"/><path d="m352.132 422.456 31.907 55.264c38.85-22.484 71.242-54.883 93.716-93.74l-10.509-47.326-44.755 15.419c-16.889 29.155-41.212 53.485-70.359 70.383z" fill="#ff9f22"/><path d="m511.999 255.951-34.244-23.451-29.49 23.451c0 .016.001.033.001.049 0 34.972-9.39 67.791-25.775 96.074l55.264 31.907c21.776-37.651 34.245-81.358 34.245-127.981 0-.016-.001-.033-.001-.049z" fill="#ffd422"/><path d="m448.265 255.951h63.734c-.009-46.635-12.493-90.351-34.288-128.005l-42.711-6.888-12.553 38.795c16.404 28.287 25.809 61.114 25.818 96.098z" fill="#ff9f22"/><path d="m422.447 159.853 55.264-31.907c-22.48-38.838-54.87-71.221-93.715-93.691l-31.906 55.264c29.141 16.885 53.462 41.199 70.357 70.334z" fill="#ffd422"/></svg>